<?xml version="1.0" encoding="UTF-8" standalone="no"?>
<!-- Created with Inkscape (http://www.inkscape.org/) -->

<svg
   width="229.30556mm"
   height="229.30556mm"
   viewBox="0 0 229.30556 229.30556"
   version="1.1"
   id="svg1"
   xml:space="preserve"
   sodipodi:docname="Spark1.svg"
   inkscape:version="1.4.2 (f4327f4, 2025-05-13)"
   xmlns:inkscape="http://www.inkscape.org/namespaces/inkscape"
   xmlns:sodipodi="http://sodipodi.sourceforge.net/DTD/sodipodi-0.dtd"
   xmlns:xlink="http://www.w3.org/1999/xlink"
   xmlns="http://www.w3.org/2000/svg"
   xmlns:svg="http://www.w3.org/2000/svg"><sodipodi:namedview
     id="namedview1"
     pagecolor="#ffffff"
     bordercolor="#000000"
     borderopacity="0"
     inkscape:showpageshadow="2"
     inkscape:pageopacity="0.0"
     inkscape:pagecheckerboard="0"
     inkscape:deskcolor="#d1d1d1"
     inkscape:document-units="mm"
     inkscape:zoom="0.99130931"
     inkscape:cx="153.83695"
     inkscape:cy="452.43195"
     inkscape:window-width="2560"
     inkscape:window-height="1417"
     inkscape:window-x="-8"
     inkscape:window-y="-8"
     inkscape:window-maximized="1"
     inkscape:current-layer="layer1" /><defs
     id="defs1"><linearGradient
       id="linearGradient13"
       inkscape:collect="always"><stop
         style="stop-color:#fff2a3;stop-opacity:1;"
         offset="0"
         id="stop14" /><stop
         style="stop-color:#f8ac53;stop-opacity:1;"
         offset="0.18657717"
         id="stop19" /><stop
         style="stop-color:#cb4ef1;stop-opacity:1;"
         offset="0.39060399"
         id="stop16" /><stop
         style="stop-color:#6bf6ff;stop-opacity:1;"
         offset="0.53422815"
         id="stop17" /><stop
         style="stop-color:#ccf929;stop-opacity:1;"
         offset="0.71281564"
         id="stop20" /><stop
         style="stop-color:#f7dc11;stop-opacity:1;"
         offset="0.85369128"
         id="stop21" /><stop
         style="stop-color:#ff5353;stop-opacity:1;"
         offset="1"
         id="stop15" /></linearGradient><radialGradient
       inkscape:collect="always"
       xlink:href="#linearGradient13"
       id="radialGradient15"
       cx="93.854836"
       cy="-4.5816407"
       fx="93.854836"
       fy="-4.5816407"
       r="114.47639"
       gradientUnits="userSpaceOnUse"
       spreadMethod="reflect"
       gradientTransform="matrix(2.1769104,-1.1951361,0.84630899,1.5415305,-106.58125,114.6504)" /></defs><g
     id="layer1"
     transform="translate(3.4472256,14.690975)"><path
       style="fill:url(#radialGradient15);fill-opacity:1"
       d="M 53.614172,157.19959 C 22.230403,125.81537 -3.4472256,99.978628 -3.4472256,99.784599 c 0,-0.460746 114.0156356,-114.475574 114.4763856,-114.475574 0.46129,0 114.47639,114.015108 114.47639,114.47639 0,0.461815 -114.01539,114.476385 -114.4772,114.476385 -0.19403,0 -26.030409,-25.67799 -57.414178,-57.06221 z M 168.09138,42.724016 111.02998,-14.338199 53.967765,42.7232 -3.094449,99.784599 53.96695,156.84681 l 57.0614,57.06222 57.06221,-57.0614 57.06222,-57.0614 z M 55.20166,155.61208 C 24.691023,125.10098 -0.27222555,99.978982 -0.27222555,99.785415 c 0,-0.46128 110.84010555,-111.30139 111.30138555,-111.30139 0.46183,0 111.30139,110.840399 111.30139,111.302228 0,0.461277 -110.84094,111.300547 -111.30222,111.300547 -0.19403,0 -25.316032,-24.96362 -55.82667,-55.47472 z m 63.58653,-10.7593 c 0.15221,-1.01865 0.3951,-1.85209 0.53974,-1.85209 0.14465,0 0.3718,-0.91281 0.50479,-2.02847 0.28494,-2.39041 0.90371,-4.67431 1.2664,-4.67431 0.14128,0 0.364,-0.71437 0.49494,-1.5875 0.13093,-0.87312 0.38708,-1.5875 0.56922,-1.5875 0.18214,0 0.33116,-0.20096 0.33116,-0.44657 0,-0.51034 3.55683,-7.67793 4.17607,-8.41546 0.2247,-0.26761 1.24951,-1.59783 2.27737,-2.95602 1.98317,-2.62054 5.69067,-6.52639 6.19497,-6.52639 0.16574,0 0.76109,-0.40139 1.323,-0.89197 1.4266,-1.24552 1.57265,-1.35027 2.96193,-2.12429 0.67909,-0.37835 1.31409,-0.78557 1.41111,-0.90494 0.097,-0.11937 0.57265,-0.34091 1.05698,-0.49231 0.48432,-0.1514 1.03995,-0.47004 1.23472,-0.70809 0.19477,-0.23805 1.14788,-0.62375 2.11802,-0.8571 0.97014,-0.23336 2.02076,-0.65615 2.33473,-0.93953 0.31972,-0.28859 1.79403,-0.64427 3.35138,-0.80853 1.52931,-0.1613 2.42337,-0.3144 1.98681,-0.3402 -0.43657,-0.0258 -0.79375,-0.18523 -0.79375,-0.35426 0,-0.16903 -0.75981,-0.40812 -1.68846,-0.53131 -0.92865,-0.12319 -2.0388,-0.46937 -2.46699,-0.76929 -0.4282,-0.29992 -1.57339,-0.78135 -2.54488,-1.06986 -0.97149,-0.2885 -1.76634,-0.65651 -1.76634,-0.81781 0,-0.16129 -0.71871,-0.49449 -1.59714,-0.74043 -0.87843,-0.24594 -1.71186,-0.62376 -1.85208,-0.8396 -0.14022,-0.21583 -0.81057,-0.67423 -1.48967,-1.01867 -3.55532,-1.803234 -4.92159,-2.733079 -6.97675,-4.748167 -1.23985,-1.21567 -2.1554,-2.21031 -2.03457,-2.21031 0.20079,0 -0.0115,-0.301972 -1.06264,-1.511548 -0.20492,-0.235801 -0.68117,-0.981447 -1.05834,-1.656991 -0.37716,-0.675543 -0.87153,-1.42828 -1.09858,-1.672747 -0.22706,-0.244468 -0.94143,-1.517375 -1.5875,-2.828684 -0.64607,-1.311308 -1.2693,-2.463571 -1.38494,-2.560585 -0.11565,-0.09701 -0.31432,-0.601851 -0.4415,-1.121859 -0.12718,-0.520009 -0.44977,-1.164002 -0.71687,-1.431096 -0.26709,-0.267094 -0.60202,-1.032257 -0.74428,-1.700363 -0.14227,-0.668106 -0.50373,-1.49255 -0.80325,-1.832099 -0.29952,-0.339549 -0.42116,-0.617361 -0.27032,-0.617361 0.15085,0 0.11028,-0.198438 -0.0901,-0.440972 -0.20042,-0.242535 -0.47565,-1.036285 -0.61162,-1.763889 -0.13597,-0.727604 -0.3883,-1.322917 -0.56074,-1.322917 -0.17243,0 -0.31352,-0.308131 -0.31352,-0.684736 0,-0.376604 -0.13789,-0.769961 -0.30644,-0.874125 -0.16854,-0.104165 -0.41412,-0.862839 -0.54574,-1.685943 -0.13162,-0.823103 -0.35524,-1.580684 -0.49692,-1.683513 -0.19774,-0.143503 -1.09314,-2.623278 -1.65979,-4.596683 -0.0279,-0.09701 -0.14671,-0.414514 -0.26411,-0.705556 -0.11741,-0.291041 -0.272,-0.846666 -0.34353,-1.234722 -0.0715,-0.388055 -0.25215,1.12007 -0.40136,3.351389 -0.14921,2.23132 -0.47206,4.374445 -0.71745,4.7625 -0.24538,0.388056 -0.55543,1.658056 -0.689,2.822222 -0.2278,1.985561 -0.63887,3.644183 -1.31147,5.291667 -0.15843,0.388056 -0.71342,1.975556 -1.23331,3.527778 -0.51989,1.552222 -1.07006,2.903187 -1.22259,3.002145 -0.15254,0.09896 -0.38488,0.608383 -0.51632,1.132057 -0.13143,0.523675 -0.45208,1.129004 -0.71255,1.345176 -0.26047,0.216172 -0.37667,0.645601 -0.25822,0.954286 0.13549,0.353087 0.0728,0.473157 -0.16893,0.323737 -0.22942,-0.141793 -0.54895,0.261396 -0.79286,1.000461 -0.22471,0.680884 -0.52952,1.237971 -0.67736,1.237971 -0.14784,0 -0.46747,0.436563 -0.71029,0.970139 -0.43091,0.946882 -0.77988,1.39058 -2.40578,3.058839 -0.43657,0.447936 -0.79375,0.918622 -0.79375,1.045968 0,0.418391 -5.019937,5.133791 -5.692649,5.347301 -0.361545,0.11475 -0.657355,0.35797 -0.657355,0.54049 0,0.18253 -0.635,0.58594 -1.411111,0.89648 -0.776111,0.31054 -1.411111,0.69382 -1.411111,0.85173 0,0.15791 -0.555625,0.47049 -1.234722,0.69461 -0.679097,0.22412 -1.234722,0.55393 -1.234722,0.73291 0,0.17898 -0.119063,0.3009 -0.264584,0.27094 -0.145521,-0.03 -0.854797,0.20816 -1.576169,0.52916 -0.721372,0.32101 -1.55481,0.58366 -1.852083,0.58366 -0.297274,0 -0.540498,0.15875 -0.540498,0.35277 0,0.19403 -0.436562,0.36394 -0.970139,0.37758 -0.533576,0.0136 -1.287639,0.16123 -1.675694,0.32798 -0.523523,0.22496 -0.247972,0.30958 1.068032,0.32798 0.975474,0.0136 2.086724,0.23747 2.469445,0.49741 0.382721,0.25993 1.678616,0.6765 2.879766,0.9257 1.20115,0.2492 2.261986,0.65656 2.357413,0.90524 0.09543,0.24867 0.66048,0.5591 1.255674,0.68982 0.595193,0.13073 1.083991,0.34414 1.086217,0.47424 0.0022,0.1301 0.637226,0.53991 1.411111,0.91067 0.773886,0.37076 1.407064,0.80733 1.407064,0.97014 0,0.16281 0.202746,0.29602 0.450546,0.29602 0.247801,0 0.934286,0.43656 1.525519,0.97014 0.59124,0.53358 1.59872,1.36609 2.23884,1.85003 1.74982,1.32288 4.43724,4.00122 5.17166,5.15418 0.35786,0.56182 0.85291,1.14844 1.10011,1.3036 0.24719,0.15516 0.44944,0.4346 0.44944,0.62098 0,0.18637 0.55677,1.13098 1.23726,2.09913 0.6805,0.96815 1.16523,1.76027 1.07718,1.76027 -0.088,0 0.2921,0.85964 0.84479,1.9103 0.55268,1.05066 1.11223,2.39909 1.24344,2.99651 0.13122,0.59742 0.44164,1.20622 0.68983,1.3529 0.24819,0.14668 0.65064,1.33825 0.89432,2.64793 0.24369,1.30969 0.56663,2.38125 0.71766,2.38125 0.44562,0 0.65926,1.33044 1.07923,6.7209 0.21842,2.80344 0.54081,5.15008 0.71642,5.21475 0.17562,0.0647 0.34617,0.6203 0.379,1.23472 0.0328,0.61443 0.16853,-0.15287 0.30156,-1.70509 0.13302,-1.55222 0.3664,-3.65566 0.51861,-4.6743 z m 31.3881,-5.99723 c 0.14844,-0.43656 0.41012,-0.79375 0.58152,-0.79375 0.1714,0 0.31163,-0.21888 0.31163,-0.4864 0,-0.84195 3.37442,-4.09971 4.24653,-4.09971 h 0.80032 l -0.81351,-0.70555 c -0.44744,-0.38806 -1.02739,-0.70556 -1.28879,-0.70556 -0.783,0 -4.31403,-3.80776 -4.6684,-5.03428 -0.18105,-0.62663 -0.34306,-0.9012 -0.36002,-0.61016 -0.038,0.65238 -1.52148,3.66025 -1.88488,3.82176 -0.14552,0.0647 -0.26458,0.34784 -0.26458,0.62925 0,0.28142 -0.55563,0.8395 -1.23472,1.24017 -1.25197,0.73868 -1.60932,1.36437 -0.77924,1.36437 0.58126,0 2.93808,2.54917 3.24193,3.5065 0.12688,0.39976 0.36071,0.72684 0.51963,0.72684 0.15893,0 0.41032,0.75406 0.55866,1.67569 0.27608,1.71526 0.26967,1.71854 1.03392,-0.52917 z M 76.609995,83.435706 c 0.01283,-0.261089 0.350874,-0.934693 0.751199,-1.496898 0.402013,-0.564576 0.61359,-1.220682 0.472607,-1.465569 -0.14039,-0.243859 -0.135476,-0.335824 0.01092,-0.204366 0.146397,0.131458 0.752651,-0.315049 1.347231,-0.992239 1.205728,-1.373248 5.238352,-4.362053 5.88547,-4.362053 0.229346,0 0.32803,-0.143945 0.219297,-0.319878 -0.108732,-0.175933 0.110134,-0.239379 0.486369,-0.140991 0.376236,0.09839 1.046778,-0.07517 1.490094,-0.385678 L 88.07921,73.50347 h -0.93962 c -0.516791,0 -1.026864,-0.141164 -1.133495,-0.313697 -0.106632,-0.172534 -0.630348,-0.423245 -1.163814,-0.557137 -0.533466,-0.133891 -1.050904,-0.360392 -1.149861,-0.503335 -0.09896,-0.142943 -0.935301,-0.773889 -1.858541,-1.402101 -3.237164,-2.202706 -4.052256,-3.265348 -6.091688,-7.941775 -0.444555,-1.019367 -0.676148,-1.244818 -0.905973,-0.881945 -0.169812,0.26812 -0.311181,0.765302 -0.314152,1.104851 -0.003,0.339549 -0.164152,0.617361 -0.35818,0.617361 -0.194028,0 -0.352778,0.295347 -0.352778,0.656327 0,0.360979 -0.357187,1.194417 -0.79375,1.852083 -0.436562,0.657666 -1.01408,1.623102 -1.283372,2.145413 -0.730076,1.416031 -3.233244,3.839929 -4.537461,4.393769 -1.679227,0.713089 -1.371698,1.552938 0.765012,2.089218 0.998764,0.250674 1.840737,0.799711 2.992172,1.951145 0.904686,0.904686 1.808831,2.08149 1.59922,2.08149 -0.106117,0 0.05322,0.351445 0.354087,0.78099 0.300865,0.429544 0.647818,1.540794 0.771008,2.469444 0.12319,0.92865 0.36228,1.688455 0.531311,1.688455 0.169031,0 0.307329,0.259394 0.307329,0.576432 0,0.317037 0.188441,1.205393 0.418759,1.974124 l 0.418758,1.397692 0.616239,-1.88593 c 0.338931,-1.037261 0.62674,-2.099548 0.639575,-2.360638 z m 16.939973,-30.15996 c 0.203614,-0.613432 1.069066,-1.750332 1.923226,-2.526443 2.192988,-1.992603 2.589852,-2.289287 3.105664,-2.321708 0.250724,-0.01576 0.05124,-0.214196 -0.443288,-0.440972 -2.007444,-0.920547 -5.602288,-4.592615 -5.655796,-5.777292 -0.01788,-0.395903 -0.248662,-0.168428 -0.617361,0.608518 -0.890757,1.877063 -2.16405,3.521732 -2.726504,3.521732 -0.276185,0 -0.700437,0.3175 -0.942782,0.705555 -0.242345,0.388056 -0.640565,0.705556 -0.884934,0.705556 -0.244369,0 -0.444307,0.15875 -0.444307,0.352778 0,0.194027 0.156936,0.352777 0.348745,0.352777 0.999767,0 4.177146,3.345938 4.66658,4.91414 0.493245,1.580416 1.126671,1.544536 1.670757,-0.09464 z"
       id="path1" /><path
       style="fill:#ffffff;stroke-width:1.00877"
       d="m 457.54828,621.12445 c -0.33884,-1.06763 -1.49862,-10.85239 -2.57729,-21.74393 -1.2849,-12.97417 -2.48146,-20.59685 -3.46998,-22.10551 -0.82984,-1.26649 -2.23847,-5.47474 -3.13028,-9.35166 -0.89181,-3.87694 -2.30356,-8.10232 -3.13721,-9.38977 -0.83366,-1.28744 -2.13332,-4.01111 -2.88815,-6.0526 -3.20906,-8.67919 -8.51788,-19.62279 -12.43779,-25.6393 -2.31437,-3.55224 -4.20796,-6.79639 -4.20796,-7.2092 0,-3.11854 -29.37955,-31.3621 -38.18377,-36.70738 -1.57928,-0.95881 -4.18822,-2.6104 -5.79765,-3.67019 -7.75932,-5.10942 -10.17912,-6.50297 -12.49001,-7.19291 -1.37632,-0.41093 -3.64605,-1.56705 -5.04383,-2.56916 -1.39779,-1.00211 -5.48147,-2.56618 -9.07484,-3.47572 -3.59337,-0.90952 -7.4519,-2.15703 -8.57452,-2.77223 -1.12261,-0.61521 -4.76478,-1.66651 -8.09371,-2.33623 -5.15993,-1.0381 -5.50531,-1.23226 -2.34178,-1.31652 2.04095,-0.0543 4.31068,-0.66626 5.04383,-1.35978 0.73316,-0.69353 4.51063,-2.35356 8.39438,-3.68894 3.88376,-1.3354 8.14397,-3.26467 9.46714,-4.28726 1.32317,-1.02261 2.96305,-1.85928 3.64417,-1.85928 0.68111,0 2.95204,-1.36184 5.0465,-3.0263 2.09446,-1.66447 4.38317,-3.0263 5.08603,-3.0263 1.79017,0 18.09999,-13.71602 24.16821,-20.32468 8.90683,-9.70007 16.06065,-18.69526 19.16657,-24.10001 1.66446,-2.8964 3.8207,-6.11529 4.79164,-7.15307 0.97094,-1.03779 1.76674,-2.45432 1.76845,-3.14785 0.002,-0.69352 1.6108,-4.43857 3.57576,-8.32232 5.52739,-10.92494 14.43192,-36.97249 16.04162,-46.92497 0.79707,-4.92815 2.10966,-10.91234 2.91689,-13.29819 0.80721,-2.38586 1.75637,-7.51554 2.10923,-11.39929 0.35287,-3.88375 0.9045,-9.10412 1.22586,-11.60082 l 0.5843,-4.53945 3.97908,11.09643 c 3.83699,10.70018 7.43266,21.78561 8.5791,26.44933 0.30271,1.2314 1.18103,2.76231 1.95182,3.40201 0.77079,0.6397 1.40144,1.77256 1.40144,2.51747 0,1.84393 2.7484,10.1182 4.99679,15.04324 12.25129,26.83611 16.40441,34.69155 25.97535,49.13124 10.10562,15.24638 20.31474,25.39119 32.1636,31.96098 4.39028,2.43426 10.25205,5.90105 13.02616,7.70397 2.77411,1.80291 6.85962,3.84065 9.0789,4.5283 2.21929,0.68766 4.71599,1.84063 5.54822,2.56216 2.27666,1.97383 22.59157,9.54885 29.50643,11.00235 4.63367,0.97399 3.12418,2.26212 -3.53068,3.01289 -3.46764,0.3912 -9.25544,1.99056 -12.86178,3.55413 -3.60634,1.56357 -8.01099,3.14929 -9.7881,3.52383 -1.77712,0.37454 -4.33388,1.54841 -5.68169,2.6086 -1.34781,1.06019 -3.65483,2.38548 -5.12671,2.94508 -2.42418,0.92168 -12.72588,7.60914 -23.30807,15.13071 -6.12785,4.35553 -17.58539,16.43303 -26.82634,28.27791 -6.4228,8.23264 -10.25081,14.63677 -17.18492,28.74986 -4.90676,9.98679 -8.92238,18.98032 -8.92359,19.98562 -10e-4,1.00528 -1.09971,4.1829 -2.4411,7.06136 -1.3414,2.87846 -2.99579,8.86512 -3.67641,13.30369 -0.68062,4.43858 -1.85997,9.30973 -2.62077,10.8248 -0.7608,1.51505 -1.98358,7.98595 -2.71729,14.37976 -1.36903,11.93031 -2.02559,14.22419 -3.10125,10.8351 z"
       id="path21"
       inkscape:label="path21"
       transform="matrix(0.26458333,0,0,0.26458333,-3.4472256,-14.690975)" /><path
       style="fill:#ffffff;stroke-width:1.00877"
       d="m 296.65662,381.15628 c -0.59217,-2.1326 -1.0792,-4.57086 -1.0823,-5.41835 -0.003,-0.84749 -0.62964,-2.4363 -1.39233,-3.53069 -0.76269,-1.09438 -1.71214,-4.03255 -2.10989,-6.52924 -0.97522,-6.12147 -5.10242,-14.88447 -8.97007,-19.04552 -3.81675,-4.10629 -11.48332,-9.19996 -13.84701,-9.19996 -0.93956,0 -2.74004,-0.83546 -4.00107,-1.85658 l -2.29278,-1.85659 4.95513,-3.33012 c 2.72533,-1.83157 6.91497,-5.1951 9.31031,-7.47451 4.62743,-4.40347 13.6858,-18.46706 14.82936,-23.02335 0.3764,-1.49972 1.32075,-3.25492 2.09855,-3.90043 0.7778,-0.64551 1.41418,-2.25294 1.41418,-3.57206 0,-4.25655 1.465,-2.59407 6.31139,7.16213 2.61205,5.2583 6.41575,11.40522 8.45265,13.65983 5.03257,5.57046 18.57159,15.64745 22.9764,17.10117 1.975,0.6518 3.85098,1.60593 4.16887,2.12027 0.31788,0.51435 2.0265,0.94961 3.79692,0.96726 3.04875,0.0304 3.11542,0.11039 1.26081,1.51315 -1.07698,0.81459 -3.23322,1.48107 -4.79164,1.48107 -1.55842,0 -2.83349,0.34313 -2.83349,0.76251 0,0.41938 -1.24835,1.32568 -2.77411,2.01399 -6.31061,2.84688 -25.46716,19.19713 -25.47514,21.7432 -0.002,0.66212 -0.87164,2.62713 -1.93237,4.36668 -1.06073,1.73956 -2.92416,6.73296 -4.14096,11.09644 -1.2168,4.36348 -2.3569,8.08966 -2.53355,8.28039 -0.17665,0.19073 -0.80568,-1.39808 -1.39786,-3.53069 z"
       id="path22"
       transform="matrix(0.26458333,0,0,0.26458333,-3.4472256,-14.690975)" /><path
       style="fill:#ffffff;stroke-width:1.00877"
       d="m 359.79115,255.28673 c -3.06041,-5.85722 -13.60333,-16.71336 -16.23114,-16.71336 -0.87342,0 -1.58804,-0.45395 -1.58804,-1.00877 0,-0.55482 0.4383,-1.00877 0.97399,-1.00877 0.53569,0 2.33612,-1.24834 4.00095,-2.7741 1.66484,-1.52576 4.33782,-3.77508 5.93997,-4.99848 1.60215,-1.2234 4.21148,-4.70444 5.79852,-7.73564 l 2.88552,-5.51128 3.28499,4.87793 c 3.53685,5.25191 12.57073,13.55911 17.78185,16.35148 1.76857,0.94769 2.53466,1.74413 1.70242,1.76988 -2.67597,0.0828 -14.17356,11.2548 -17.31944,16.82899 -1.67667,2.9709 -3.34561,5.40055 -3.70877,5.39923 -0.36315,-0.001 -1.94752,-2.46602 -3.52082,-5.47711 z"
       id="path23"
       transform="matrix(0.26458333,0,0,0.26458333,-3.4472256,-14.690975)" /><path
       style="fill:#ffffff;stroke-width:1.00877"
       d="m 577.6827,583.90343 c -0.36742,-0.36742 -0.66804,-1.55438 -0.66804,-2.63768 0,-4.50385 -12.47775,-20.72143 -16.97406,-22.06154 -0.78659,-0.23444 0.49955,-1.71858 3.12031,-3.60067 3.43741,-2.46856 5.51518,-5.26924 9.07251,-12.22906 3.79053,-7.41608 4.71612,-8.62042 5.1861,-6.74789 0.91213,3.63424 13.56288,16.59886 18.42895,18.88618 4.74905,2.23231 6.41199,3.84847 3.95988,3.84847 -1.902,0 -14.18809,11.37153 -16.20165,14.99563 -0.81216,1.46178 -2.32701,4.35807 -3.36631,6.4362 -1.03931,2.07812 -2.19027,3.47778 -2.55769,3.11036 z"
       id="path24"
       transform="matrix(0.26458333,0,0,0.26458333,-3.4472256,-14.690975)" /></g></svg>
