<?xml version="1.0" encoding="UTF-8" standalone="no"?>
<!-- Created with Inkscape (http://www.inkscape.org/) -->

<svg
   width="229.30556mm"
   height="229.30556mm"
   viewBox="0 0 229.30556 229.30556"
   version="1.1"
   id="svg1"
   xml:space="preserve"
   sodipodi:docname="Spark1.svg"
   inkscape:version="1.4.2 (f4327f4, 2025-05-13)"
   xmlns:inkscape="http://www.inkscape.org/namespaces/inkscape"
   xmlns:sodipodi="http://sodipodi.sourceforge.net/DTD/sodipodi-0.dtd"
   xmlns:xlink="http://www.w3.org/1999/xlink"
   xmlns="http://www.w3.org/2000/svg"
   xmlns:svg="http://www.w3.org/2000/svg"><sodipodi:namedview
     id="namedview1"
     pagecolor="#ffffff"
     bordercolor="#000000"
     borderopacity="0.25"
     inkscape:showpageshadow="2"
     inkscape:pageopacity="0.0"
     inkscape:pagecheckerboard="0"
     inkscape:deskcolor="#d1d1d1"
     inkscape:document-units="mm"
     inkscape:zoom="0.99130931"
     inkscape:cx="153.83695"
     inkscape:cy="452.43195"
     inkscape:window-width="2560"
     inkscape:window-height="1417"
     inkscape:window-x="-8"
     inkscape:window-y="-8"
     inkscape:window-maximized="1"
     inkscape:current-layer="layer1" /><defs
     id="defs1"><linearGradient
       id="linearGradient13"
       inkscape:collect="always"><stop
         style="stop-color:#fff2a3;stop-opacity:1;"
         offset="0"
         id="stop14" /><stop
         style="stop-color:#f8ac53;stop-opacity:1;"
         offset="0.18657717"
         id="stop19" /><stop
         style="stop-color:#cb4ef1;stop-opacity:1;"
         offset="0.39060399"
         id="stop16" /><stop
         style="stop-color:#6bf6ff;stop-opacity:1;"
         offset="0.53422815"
         id="stop17" /><stop
         style="stop-color:#ccf929;stop-opacity:1;"
         offset="0.71281564"
         id="stop20" /><stop
         style="stop-color:#f7dc11;stop-opacity:1;"
         offset="0.85369128"
         id="stop21" /><stop
         style="stop-color:#ff5353;stop-opacity:1;"
         offset="1"
         id="stop15" /></linearGradient><radialGradient
       inkscape:collect="always"
       xlink:href="#linearGradient13"
       id="radialGradient15"
       cx="93.854836"
       cy="-4.5816407"
       fx="93.854836"
       fy="-4.5816407"
       r="114.47639"
       gradientUnits="userSpaceOnUse"
       spreadMethod="reflect"
       gradientTransform="matrix(2.1769104,-1.1951361,0.84630899,1.5415305,-106.58125,114.6504)" /></defs><g
     id="layer1"
     transform="translate(3.4472256,14.690975)"><path
       style="fill:url(#radialGradient15);fill-opacity:1"
       d="M 53.614172,157.19959 C 22.230403,125.81537 -3.4472256,99.978628 -3.4472256,99.784599 c 0,-0.460746 114.0156356,-114.475574 114.4763856,-114.475574 0.46129,0 114.47639,114.015108 114.47639,114.47639 0,0.461815 -114.01539,114.476385 -114.4772,114.476385 -0.19403,0 -26.030409,-25.67799 -57.414178,-57.06221 z M 168.09138,42.724016 111.02998,-14.338199 53.967765,42.7232 -3.094449,99.784599 53.96695,156.84681 l 57.0614,57.06222 57.06221,-57.0614 57.06222,-57.0614 z M 55.20166,155.61208 C 24.691023,125.10098 -0.27222555,99.978982 -0.27222555,99.785415 c 0,-0.46128 110.84010555,-111.30139 111.30138555,-111.30139 0.46183,0 111.30139,110.840399 111.30139,111.302228 0,0.461277 -110.84094,111.300547 -111.30222,111.300547 -0.19403,0 -25.316032,-24.96362 -55.82667,-55.47472 z m 63.58653,-10.7593 c 0.15221,-1.01865 0.3951,-1.85209 0.53974,-1.85209 0.14465,0 0.3718,-0.91281 0.50479,-2.02847 0.28494,-2.39041 0.90371,-4.67431 1.2664,-4.67431 0.14128,0 0.364,-0.71437 0.49494,-1.5875 0.13093,-0.87312 0.38708,-1.5875 0.56922,-1.5875 0.18214,0 0.33116,-0.20096 0.33116,-0.44657 0,-0.51034 3.55683,-7.67793 4.17607,-8.41546 0.2247,-0.26761 1.24951,-1.59783 2.27737,-2.95602 1.98317,-2.62054 5.69067,-6.52639 6.19497,-6.52639 0.16574,0 0.76109,-0.40139 1.323,-0.89197 1.4266,-1.24552 1.57265,-1.35027 2.96193,-2.12429 0.67909,-0.37835 1.31409,-0.78557 1.41111,-0.90494 0.097,-0.11937 0.57265,-0.34091 1.05698,-0.49231 0.48432,-0.1514 1.03995,-0.47004 1.23472,-0.70809 0.19477,-0.23805 1.14788,-0.62375 2.11802,-0.8571 0.97014,-0.23336 2.02076,-0.65615 2.33473,-0.93953 0.31972,-0.28859 1.79403,-0.64427 3.35138,-0.80853 1.52931,-0.1613 2.42337,-0.3144 1.98681,-0.3402 -0.43657,-0.0258 -0.79375,-0.18523 -0.79375,-0.35426 0,-0.16903 -0.75981,-0.40812 -1.68846,-0.53131 -0.92865,-0.12319 -2.0388,-0.46937 -2.46699,-0.76929 -0.4282,-0.29992 -1.57339,-0.78135 -2.54488,-1.06986 -0.97149,-0.2885 -1.76634,-0.65651 -1.76634,-0.81781 0,-0.16129 -0.71871,-0.49449 -1.59714,-0.74043 -0.87843,-0.24594 -1.71186,-0.62376 -1.85208,-0.8396 -0.14022,-0.21583 -0.81057,-0.67423 -1.48967,-1.01867 -3.55532,-1.803234 -4.92159,-2.733079 -6.97675,-4.748167 -1.23985,-1.21567 -2.1554,-2.21031 -2.03457,-2.21031 0.20079,0 -0.0115,-0.301972 -1.06264,-1.511548 -0.20492,-0.235801 -0.68117,-0.981447 -1.05834,-1.656991 -0.37716,-0.675543 -0.87153,-1.42828 -1.09858,-1.672747 -0.22706,-0.244468 -0.94143,-1.517375 -1.5875,-2.828684 -0.64607,-1.311308 -1.2693,-2.463571 -1.38494,-2.560585 -0.11565,-0.09701 -0.31432,-0.601851 -0.4415,-1.121859 -0.12718,-0.520009 -0.44977,-1.164002 -0.71687,-1.431096 -0.26709,-0.267094 -0.60202,-1.032257 -0.74428,-1.700363 -0.14227,-0.668106 -0.50373,-1.49255 -0.80325,-1.832099 -0.29952,-0.339549 -0.42116,-0.617361 -0.27032,-0.617361 0.15085,0 0.11028,-0.198438 -0.0901,-0.440972 -0.20042,-0.242535 -0.47565,-1.036285 -0.61162,-1.763889 -0.13597,-0.727604 -0.3883,-1.322917 -0.56074,-1.322917 -0.17243,0 -0.31352,-0.308131 -0.31352,-0.684736 0,-0.376604 -0.13789,-0.769961 -0.30644,-0.874125 -0.16854,-0.104165 -0.41412,-0.862839 -0.54574,-1.685943 -0.13162,-0.823103 -0.35524,-1.580684 -0.49692,-1.683513 -0.19774,-0.143503 -1.09314,-2.623278 -1.65979,-4.596683 -0.0279,-0.09701 -0.14671,-0.414514 -0.26411,-0.705556 -0.11741,-0.291041 -0.272,-0.846666 -0.34353,-1.234722 -0.0715,-0.388055 -0.25215,1.12007 -0.40136,3.351389 -0.14921,2.23132 -0.47206,4.374445 -0.71745,4.7625 -0.24538,0.388056 -0.55543,1.658056 -0.689,2.822222 -0.2278,1.985561 -0.63887,3.644183 -1.31147,5.291667 -0.15843,0.388056 -0.71342,1.975556 -1.23331,3.527778 -0.51989,1.552222 -1.07006,2.903187 -1.22259,3.002145 -0.15254,0.09896 -0.38488,0.608383 -0.51632,1.132057 -0.13143,0.523675 -0.45208,1.129004 -0.71255,1.345176 -0.26047,0.216172 -0.37667,0.645601 -0.25822,0.954286 0.13549,0.353087 0.0728,0.473157 -0.16893,0.323737 -0.22942,-0.141793 -0.54895,0.261396 -0.79286,1.000461 -0.22471,0.680884 -0.52952,1.237971 -0.67736,1.237971 -0.14784,0 -0.46747,0.436563 -0.71029,0.970139 -0.43091,0.946882 -0.77988,1.39058 -2.40578,3.058839 -0.43657,0.447936 -0.79375,0.918622 -0.79375,1.045968 0,0.418391 -5.019937,5.133791 -5.692649,5.347301 -0.361545,0.11475 -0.657355,0.35797 -0.657355,0.54049 0,0.18253 -0.635,0.58594 -1.411111,0.89648 -0.776111,0.31054 -1.411111,0.69382 -1.411111,0.85173 0,0.15791 -0.555625,0.47049 -1.234722,0.69461 -0.679097,0.22412 -1.234722,0.55393 -1.234722,0.73291 0,0.17898 -0.119063,0.3009 -0.264584,0.27094 -0.145521,-0.03 -0.854797,0.20816 -1.576169,0.52916 -0.721372,0.32101 -1.55481,0.58366 -1.852083,0.58366 -0.297274,0 -0.540498,0.15875 -0.540498,0.35277 0,0.19403 -0.436562,0.36394 -0.970139,0.37758 -0.533576,0.0136 -1.287639,0.16123 -1.675694,0.32798 -0.523523,0.22496 -0.247972,0.30958 1.068032,0.32798 0.975474,0.0136 2.086724,0.23747 2.469445,0.49741 0.382721,0.25993 1.678616,0.6765 2.879766,0.9257 1.20115,0.2492 2.261986,0.65656 2.357413,0.90524 0.09543,0.24867 0.66048,0.5591 1.255674,0.68982 0.595193,0.13073 1.083991,0.34414 1.086217,0.47424 0.0022,0.1301 0.637226,0.53991 1.411111,0.91067 0.773886,0.37076 1.407064,0.80733 1.407064,0.97014 0,0.16281 0.202746,0.29602 0.450546,0.29602 0.247801,0 0.934286,0.43656 1.525519,0.97014 0.59124,0.53358 1.59872,1.36609 2.23884,1.85003 1.74982,1.32288 4.43724,4.00122 5.17166,5.15418 0.35786,0.56182 0.85291,1.14844 1.10011,1.3036 0.24719,0.15516 0.44944,0.4346 0.44944,0.62098 0,0.18637 0.55677,1.13098 1.23726,2.09913 0.6805,0.96815 1.16523,1.76027 1.07718,1.76027 -0.088,0 0.2921,0.85964 0.84479,1.9103 0.55268,1.05066 1.11223,2.39909 1.24344,2.99651 0.13122,0.59742 0.44164,1.20622 0.68983,1.3529 0.24819,0.14668 0.65064,1.33825 0.89432,2.64793 0.24369,1.30969 0.56663,2.38125 0.71766,2.38125 0.44562,0 0.65926,1.33044 1.07923,6.7209 0.21842,2.80344 0.54081,5.15008 0.71642,5.21475 0.17562,0.0647 0.34617,0.6203 0.379,1.23472 0.0328,0.61443 0.16853,-0.15287 0.30156,-1.70509 0.13302,-1.55222 0.3664,-3.65566 0.51861,-4.6743 z m 31.3881,-5.99723 c 0.14844,-0.43656 0.41012,-0.79375 0.58152,-0.79375 0.1714,0 0.31163,-0.21888 0.31163,-0.4864 0,-0.84195 3.37442,-4.09971 4.24653,-4.09971 h 0.80032 l -0.81351,-0.70555 c -0.44744,-0.38806 -1.02739,-0.70556 -1.28879,-0.70556 -0.783,0 -4.31403,-3.80776 -4.6684,-5.03428 -0.18105,-0.62663 -0.34306,-0.9012 -0.36002,-0.61016 -0.038,0.65238 -1.52148,3.66025 -1.88488,3.82176 -0.14552,0.0647 -0.26458,0.34784 -0.26458,0.62925 0,0.28142 -0.55563,0.8395 -1.23472,1.24017 -1.25197,0.73868 -1.60932,1.36437 -0.77924,1.36437 0.58126,0 2.93808,2.54917 3.24193,3.5065 0.12688,0.39976 0.36071,0.72684 0.51963,0.72684 0.15893,0 0.41032,0.75406 0.55866,1.67569 0.27608,1.71526 0.26967,1.71854 1.03392,-0.52917 z M 76.609995,83.435706 c 0.01283,-0.261089 0.350874,-0.934693 0.751199,-1.496898 0.402013,-0.564576 0.61359,-1.220682 0.472607,-1.465569 -0.14039,-0.243859 -0.135476,-0.335824 0.01092,-0.204366 0.146397,0.131458 0.752651,-0.315049 1.347231,-0.992239 1.205728,-1.373248 5.238352,-4.362053 5.88547,-4.362053 0.229346,0 0.32803,-0.143945 0.219297,-0.319878 -0.108732,-0.175933 0.110134,-0.239379 0.486369,-0.140991 0.376236,0.09839 1.046778,-0.07517 1.490094,-0.385678 L 88.07921,73.50347 h -0.93962 c -0.516791,0 -1.026864,-0.141164 -1.133495,-0.313697 -0.106632,-0.172534 -0.630348,-0.423245 -1.163814,-0.557137 -0.533466,-0.133891 -1.050904,-0.360392 -1.149861,-0.503335 -0.09896,-0.142943 -0.935301,-0.773889 -1.858541,-1.402101 -3.237164,-2.202706 -4.052256,-3.265348 -6.091688,-7.941775 -0.444555,-1.019367 -0.676148,-1.244818 -0.905973,-0.881945 -0.169812,0.26812 -0.311181,0.765302 -0.314152,1.104851 -0.003,0.339549 -0.164152,0.617361 -0.35818,0.617361 -0.194028,0 -0.352778,0.295347 -0.352778,0.656327 0,0.360979 -0.357187,1.194417 -0.79375,1.852083 -0.436562,0.657666 -1.01408,1.623102 -1.283372,2.145413 -0.730076,1.416031 -3.233244,3.839929 -4.537461,4.393769 -1.679227,0.713089 -1.371698,1.552938 0.765012,2.089218 0.998764,0.250674 1.840737,0.799711 2.992172,1.951145 0.904686,0.904686 1.808831,2.08149 1.59922,2.08149 -0.106117,0 0.05322,0.351445 0.354087,0.78099 0.300865,0.429544 0.647818,1.540794 0.771008,2.469444 0.12319,0.92865 0.36228,1.688455 0.531311,1.688455 0.169031,0 0.307329,0.259394 0.307329,0.576432 0,0.317037 0.188441,1.205393 0.418759,1.974124 l 0.418758,1.397692 0.616239,-1.88593 c 0.338931,-1.037261 0.62674,-2.099548 0.639575,-2.360638 z m 16.939973,-30.15996 c 0.203614,-0.613432 1.069066,-1.750332 1.923226,-2.526443 2.192988,-1.992603 2.589852,-2.289287 3.105664,-2.321708 0.250724,-0.01576 0.05124,-0.214196 -0.443288,-0.440972 -2.007444,-0.920547 -5.602288,-4.592615 -5.655796,-5.777292 -0.01788,-0.395903 -0.248662,-0.168428 -0.617361,0.608518 -0.890757,1.877063 -2.16405,3.521732 -2.726504,3.521732 -0.276185,0 -0.700437,0.3175 -0.942782,0.705555 -0.242345,0.388056 -0.640565,0.705556 -0.884934,0.705556 -0.244369,0 -0.444307,0.15875 -0.444307,0.352778 0,0.194027 0.156936,0.352777 0.348745,0.352777 0.999767,0 4.177146,3.345938 4.66658,4.91414 0.493245,1.580416 1.126671,1.544536 1.670757,-0.09464 z"
       id="path1" /></g></svg>
